# xmcd
#
# Track frame offsets: 
#        150
#        12023
#        22951
#        36021
#        48908
#        61086
#        73593
#        85738
#        98773
#        111702
#        126627
#        140393
#        155898
#        170411
#        184251
#        196663
#        208908
#        226771
#        243526
#        263651
#        281211
#        295543
#        309383
#        322733
#
# Disc length: 4459 seconds
#
# Revision: 4
# Processed by: cddbd v1.5.2PL0 Copyright (c) Steve Scherf et al.
# Submitted via: ExactAudioCopy v0.95b4
#
DISCID=51116918
DTITLE=Charlie Parker - A Studio Chronicle 1940-1948 [CDB)
DYEAR=2003
DGENRE=Jazz
TTITLE0=4-F Blues
TTITLE1=G I Blues
TTITLE2=Dream Of You
TTITLE3=Seventh Avenue
TTITLE4=Sorta Kinda
TTITLE5=Ooh Ooh, My My, Ooh Ooh
TTITLE6=Groovin' High
TTITLE7=All The Things You Are
TTITLE8=Dizzy Atmosphere
TTITLE9=Salt Peanuts
TTITLE10=Shaw Nuff
TTITLE11=Lover Man
TTITLE12=Hot House
TTITLE13=What More Can A Woman Do
TTITLE14=I'd Rather Have A Memory Than A Dream
TTITLE15=Mean To Me
TTITLE16=Hallelujah
TTITLE17=Get Happy
TTITLE18=Slam Slam Blues
TTITLE19=Congo Blues
TTITLE20=Takin' Off
TTITLE21=If I Had You
TTITLE22=20th Century Blues
TTITLE23=The Street Beat
EXTD=YEAR: 2003
EXTT0=
EXTT1=
EXTT2=
EXTT3=
EXTT4=
EXTT5=
EXTT6=
EXTT7=
EXTT8=
EXTT9=
EXTT10=
EXTT11=
EXTT12=
EXTT13=
EXTT14=
EXTT15=
EXTT16=
EXTT17=
EXTT18=
EXTT19=
EXTT20=
EXTT21=
EXTT22=
EXTT23=
PLAYORDER=
